<svg width="60" height="60" viewBox="0 0 60 60" fill="none" xmlns="http://www.w3.org/2000/svg">
<path d="M25.515 30.0002L3.75 17.3739V42.6264L25.515 30.0002ZM28.485 27.3902C28.9448 27.6534 29.3268 28.0334 29.5925 28.4917C29.8583 28.95 29.9982 29.4704 29.9982 30.0002C29.9982 30.53 29.8583 31.0503 29.5925 31.5086C29.3268 31.967 28.9448 32.347 28.485 32.6102L4.62375 46.4552C2.67375 47.5877 0 46.2939 0 43.8452V16.1552C0 13.7064 2.67375 12.4127 4.62375 13.5452L28.485 27.3902Z" fill="#1F561F"/>
<path d="M55.515 30.0002L33.75 17.3739V42.6264L55.515 30.0002ZM58.485 27.3902C58.9448 27.6534 59.3268 28.0334 59.5925 28.4917C59.8583 28.95 59.9982 29.4704 59.9982 30.0002C59.9982 30.53 59.8583 31.0503 59.5925 31.5086C59.3268 31.967 58.9448 32.347 58.485 32.6102L34.6237 46.4552C32.6737 47.5877 30 46.2939 30 43.8452V16.1552C30 13.7064 32.6737 12.4127 34.6237 13.5452L58.485 27.3902Z" fill="#1F561F"/>
</svg>
