<svg width="60" height="60" viewBox="0 0 60 60" fill="none" xmlns="http://www.w3.org/2000/svg">
<path d="M30 11.25C33.7084 11.25 37.3335 12.3497 40.4169 14.4099C43.5004 16.4702 45.9036 19.3986 47.3227 22.8247C48.7419 26.2508 49.1132 30.0208 48.3897 33.6579C47.6663 37.2951 45.8805 40.636 43.2583 43.2583C40.636 45.8805 37.2951 47.6663 33.6579 48.3897C30.0208 49.1132 26.2508 48.7419 22.8247 47.3227C19.3986 45.9036 16.4702 43.5004 14.4099 40.4169C12.3497 37.3335 11.25 33.7084 11.25 30C11.25 29.5027 11.0525 29.0258 10.7008 28.6742C10.3492 28.3225 9.87228 28.125 9.375 28.125C8.87772 28.125 8.40081 28.3225 8.04918 28.6742C7.69754 29.0258 7.5 29.5027 7.5 30C7.49988 35.1518 9.2677 40.1476 12.5081 44.1526C15.7485 48.1577 20.2651 50.9295 25.3034 52.0049C30.3417 53.0802 35.5964 52.3941 40.1896 50.061C44.7828 47.7279 48.4362 43.8892 50.5395 39.1863C52.6427 34.4835 53.0684 29.2012 51.7454 24.2222C50.4223 19.2433 47.4307 14.8691 43.2704 11.8306C39.1101 8.7921 34.0331 7.27332 28.8876 7.52803C23.7421 7.78273 18.8399 9.79549 15 13.23V9.375C15 8.87772 14.8025 8.40081 14.4508 8.04918C14.0992 7.69754 13.6223 7.5 13.125 7.5C12.6277 7.5 12.1508 7.69754 11.7992 8.04918C11.4475 8.40081 11.25 8.87772 11.25 9.375V20.625C11.25 21.1223 11.4475 21.5992 11.7992 21.9508C12.1508 22.3025 12.6277 22.5 13.125 22.5H20.625C21.1223 22.5 21.5992 22.3025 21.9508 21.9508C22.3025 21.5992 22.5 21.1223 22.5 20.625C22.5 20.1277 22.3025 19.6508 21.9508 19.2992C21.5992 18.9475 21.1223 18.75 20.625 18.75H15C16.7449 16.4196 19.0093 14.5283 21.6132 13.2263C24.2171 11.9244 27.0887 11.2477 30 11.25ZM30.0038 20.625C30.0038 20.1277 29.8062 19.6508 29.4546 19.2992C29.1029 18.9475 28.626 18.75 28.1287 18.75C27.6315 18.75 27.1546 18.9475 26.8029 19.2992C26.4513 19.6508 26.2537 20.1277 26.2537 20.625V31.875C26.2537 32.3723 26.4513 32.8492 26.8029 33.2008C27.1546 33.5525 27.6315 33.75 28.1287 33.75H35.6288C36.126 33.75 36.6029 33.5525 36.9546 33.2008C37.3062 32.8492 37.5038 32.3723 37.5038 31.875C37.5038 31.3777 37.3062 30.9008 36.9546 30.5492C36.6029 30.1975 36.126 30 35.6288 30H30.0038V20.625Z" fill="black"/>
</svg>
